<svg xmlns="http://www.w3.org/2000/svg" viewBox="0 0 800 800" width="800" height="800">
  <!-- generated by tools/make-deco-lineart.py -->
  <defs><mask id="ph0" maskUnits="userSpaceOnUse" x="105" y="441" width="90" height="90"><path d="M 150 444 A 42 42 0 0 1 150 528 Z" fill="#ffffff" stroke="none"/><path style="transform-origin:150px 486px;transform:scaleX(1);opacity:1" d="M 150 444 A 42 42 0 0 1 150 528 Z" fill="#000000" stroke="none"/><path style="transform-origin:150px 486px;transform:scaleX(1.06);opacity:1" d="M 150 444 A 42 42 0 0 1 150 528 Z" fill="#000000" fill-opacity="0.5" stroke="none"/><path style="transform-origin:150px 486px;transform:scaleX(1);opacity:0" d="M 150 444 A 42 42 0 0 1 150 528 Z" fill="#ffffff" stroke="none"/><path style="transform-origin:150px 486px;transform:scaleX(1.06);opacity:0" d="M 150 444 A 42 42 0 0 1 150 528 Z" fill="#ffffff" fill-opacity="0.5" stroke="none"/></mask><linearGradient id="phg0" gradientUnits="userSpaceOnUse" x1="108" y1="486" x2="192" y2="486"><stop offset="0" stop-color="#b6b3ad" stop-opacity="0.34"/><stop offset="0.45" stop-color="#b6b3ad" stop-opacity="0.19"/><stop offset="0.82" stop-color="#b6b3ad" stop-opacity="0.08"/><stop offset="1" stop-color="#f4f2ee" stop-opacity="0.03"/></linearGradient><radialGradient id="phr0" gradientUnits="userSpaceOnUse" cx="150" cy="486" r="42"><stop offset="0.55" stop-color="#b6b3ad" stop-opacity="0"/><stop offset="0.88" stop-color="#b6b3ad" stop-opacity="0.07"/><stop offset="1" stop-color="#6f6d69" stop-opacity="0.2"/></radialGradient><mask id="ph1" maskUnits="userSpaceOnUse" x="124.03" y="345.33" width="90" height="90"><path d="M 169.03 348.33 A 42 42 0 0 1 169.03 432.33 Z" fill="#ffffff" stroke="none"/><path style="transform-origin:169.03px 390.33px;transform:scaleX(0.92);opacity:1" d="M 169.03 348.33 A 42 42 0 0 1 169.03 432.33 Z" fill="#000000" stroke="none"/><path style="transform-origin:169.03px 390.33px;transform:scaleX(0.98);opacity:1" d="M 169.03 348.33 A 42 42 0 0 1 169.03 432.33 Z" fill="#000000" fill-opacity="0.5" stroke="none"/><path style="transform-origin:169.03px 390.33px;transform:scaleX(0.92);opacity:0" d="M 169.03 348.33 A 42 42 0 0 1 169.03 432.33 Z" fill="#ffffff" stroke="none"/><path style="transform-origin:169.03px 390.33px;transform:scaleX(0.98);opacity:0" d="M 169.03 348.33 A 42 42 0 0 1 169.03 432.33 Z" fill="#ffffff" fill-opacity="0.5" stroke="none"/></mask><linearGradient id="phg1" gradientUnits="userSpaceOnUse" x1="127.03" y1="390.33" x2="211.03" y2="390.33"><stop offset="0" stop-color="#b6b3ad" stop-opacity="0.34"/><stop offset="0.45" stop-color="#b6b3ad" stop-opacity="0.19"/><stop offset="0.82" stop-color="#b6b3ad" stop-opacity="0.08"/><stop offset="1" stop-color="#f4f2ee" stop-opacity="0.03"/></linearGradient><radialGradient id="phr1" gradientUnits="userSpaceOnUse" cx="169.03" cy="390.33" r="42"><stop offset="0.55" stop-color="#b6b3ad" stop-opacity="0"/><stop offset="0.88" stop-color="#b6b3ad" stop-opacity="0.07"/><stop offset="1" stop-color="#6f6d69" stop-opacity="0.2"/></radialGradient><mask id="ph2" maskUnits="userSpaceOnUse" x="178.22" y="264.22" width="90" height="90"><path d="M 223.22 267.22 A 42 42 0 0 1 223.22 351.22 Z" fill="#ffffff" stroke="none"/><path style="transform-origin:223.22px 309.22px;transform:scaleX(0.71);opacity:1" d="M 223.22 267.22 A 42 42 0 0 1 223.22 351.22 Z" fill="#000000" stroke="none"/><path style="transform-origin:223.22px 309.22px;transform:scaleX(0.75);opacity:1" d="M 223.22 267.22 A 42 42 0 0 1 223.22 351.22 Z" fill="#000000" fill-opacity="0.5" stroke="none"/><path style="transform-origin:223.22px 309.22px;transform:scaleX(0.71);opacity:0" d="M 223.22 267.22 A 42 42 0 0 1 223.22 351.22 Z" fill="#ffffff" stroke="none"/><path style="transform-origin:223.22px 309.22px;transform:scaleX(0.75);opacity:0" d="M 223.22 267.22 A 42 42 0 0 1 223.22 351.22 Z" fill="#ffffff" fill-opacity="0.5" stroke="none"/></mask><linearGradient id="phg2" gradientUnits="userSpaceOnUse" x1="181.22" y1="309.22" x2="265.22" y2="309.22"><stop offset="0" stop-color="#b6b3ad" stop-opacity="0.34"/><stop offset="0.45" stop-color="#b6b3ad" stop-opacity="0.19"/><stop offset="0.82" stop-color="#b6b3ad" stop-opacity="0.08"/><stop offset="1" stop-color="#f4f2ee" stop-opacity="0.03"/></linearGradient><radialGradient id="phr2" gradientUnits="userSpaceOnUse" cx="223.22" cy="309.22" r="42"><stop offset="0.55" stop-color="#b6b3ad" stop-opacity="0"/><stop offset="0.88" stop-color="#b6b3ad" stop-opacity="0.07"/><stop offset="1" stop-color="#6f6d69" stop-opacity="0.2"/></radialGradient><mask id="ph3" maskUnits="userSpaceOnUse" x="259.33" y="210.03" width="90" height="90"><path d="M 304.33 213.03 A 42 42 0 0 1 304.33 297.03 Z" fill="#ffffff" stroke="none"/><path style="transform-origin:304.33px 255.03px;transform:scaleX(0.38);opacity:1" d="M 304.33 213.03 A 42 42 0 0 1 304.33 297.03 Z" fill="#000000" stroke="none"/><path style="transform-origin:304.33px 255.03px;transform:scaleX(0.41);opacity:1" d="M 304.33 213.03 A 42 42 0 0 1 304.33 297.03 Z" fill="#000000" fill-opacity="0.5" stroke="none"/><path style="transform-origin:304.33px 255.03px;transform:scaleX(0.38);opacity:0" d="M 304.33 213.03 A 42 42 0 0 1 304.33 297.03 Z" fill="#ffffff" stroke="none"/><path style="transform-origin:304.33px 255.03px;transform:scaleX(0.41);opacity:0" d="M 304.33 213.03 A 42 42 0 0 1 304.33 297.03 Z" fill="#ffffff" fill-opacity="0.5" stroke="none"/></mask><linearGradient id="phg3" gradientUnits="userSpaceOnUse" x1="262.33" y1="255.03" x2="346.33" y2="255.03"><stop offset="0" stop-color="#b6b3ad" stop-opacity="0.34"/><stop offset="0.45" stop-color="#b6b3ad" stop-opacity="0.19"/><stop offset="0.82" stop-color="#b6b3ad" stop-opacity="0.08"/><stop offset="1" stop-color="#f4f2ee" stop-opacity="0.03"/></linearGradient><radialGradient id="phr3" gradientUnits="userSpaceOnUse" cx="304.33" cy="255.03" r="42"><stop offset="0.55" stop-color="#b6b3ad" stop-opacity="0"/><stop offset="0.88" stop-color="#b6b3ad" stop-opacity="0.07"/><stop offset="1" stop-color="#6f6d69" stop-opacity="0.2"/></radialGradient><mask id="ph4" maskUnits="userSpaceOnUse" x="355" y="191" width="90" height="90"><path d="M 400 194 A 42 42 0 0 1 400 278 Z" fill="#ffffff" stroke="none"/><path style="transform-origin:400px 236px;transform:scaleX(0);opacity:0" d="M 400 194 A 42 42 0 0 1 400 278 Z" fill="#000000" stroke="none"/><path style="transform-origin:400px 236px;transform:scaleX(0);opacity:0" d="M 400 194 A 42 42 0 0 1 400 278 Z" fill="#000000" fill-opacity="0.5" stroke="none"/><path style="transform-origin:400px 236px;transform:scaleX(0);opacity:0" d="M 400 194 A 42 42 0 0 1 400 278 Z" fill="#ffffff" stroke="none"/><path style="transform-origin:400px 236px;transform:scaleX(0);opacity:0" d="M 400 194 A 42 42 0 0 1 400 278 Z" fill="#ffffff" fill-opacity="0.5" stroke="none"/></mask><linearGradient id="phg4" gradientUnits="userSpaceOnUse" x1="358" y1="236" x2="442" y2="236"><stop offset="0" stop-color="#b6b3ad" stop-opacity="0.34"/><stop offset="0.45" stop-color="#b6b3ad" stop-opacity="0.19"/><stop offset="0.82" stop-color="#b6b3ad" stop-opacity="0.08"/><stop offset="1" stop-color="#f4f2ee" stop-opacity="0.03"/></linearGradient><radialGradient id="phr4" gradientUnits="userSpaceOnUse" cx="400" cy="236" r="42"><stop offset="0.55" stop-color="#b6b3ad" stop-opacity="0"/><stop offset="0.88" stop-color="#b6b3ad" stop-opacity="0.07"/><stop offset="1" stop-color="#6f6d69" stop-opacity="0.2"/></radialGradient><mask id="ph5" maskUnits="userSpaceOnUse" x="450.67" y="210.03" width="90" height="90"><path d="M 495.67 213.03 A 42 42 0 0 1 495.67 297.03 Z" fill="#ffffff" stroke="none"/><path style="transform-origin:495.67px 255.03px;transform:scaleX(-0.38);opacity:0" d="M 495.67 213.03 A 42 42 0 0 1 495.67 297.03 Z" fill="#000000" stroke="none"/><path style="transform-origin:495.67px 255.03px;transform:scaleX(-0.41);opacity:0" d="M 495.67 213.03 A 42 42 0 0 1 495.67 297.03 Z" fill="#000000" fill-opacity="0.5" stroke="none"/><path style="transform-origin:495.67px 255.03px;transform:scaleX(-0.38);opacity:1" d="M 495.67 213.03 A 42 42 0 0 1 495.67 297.03 Z" fill="#ffffff" stroke="none"/><path style="transform-origin:495.67px 255.03px;transform:scaleX(-0.41);opacity:1" d="M 495.67 213.03 A 42 42 0 0 1 495.67 297.03 Z" fill="#ffffff" fill-opacity="0.5" stroke="none"/></mask><linearGradient id="phg5" gradientUnits="userSpaceOnUse" x1="453.67" y1="255.03" x2="537.67" y2="255.03"><stop offset="0" stop-color="#b6b3ad" stop-opacity="0.34"/><stop offset="0.45" stop-color="#b6b3ad" stop-opacity="0.19"/><stop offset="0.82" stop-color="#b6b3ad" stop-opacity="0.08"/><stop offset="1" stop-color="#f4f2ee" stop-opacity="0.03"/></linearGradient><radialGradient id="phr5" gradientUnits="userSpaceOnUse" cx="495.67" cy="255.03" r="42"><stop offset="0.55" stop-color="#b6b3ad" stop-opacity="0"/><stop offset="0.88" stop-color="#b6b3ad" stop-opacity="0.07"/><stop offset="1" stop-color="#6f6d69" stop-opacity="0.2"/></radialGradient><mask id="ph6" maskUnits="userSpaceOnUse" x="531.78" y="264.22" width="90" height="90"><path d="M 576.78 267.22 A 42 42 0 0 1 576.78 351.22 Z" fill="#ffffff" stroke="none"/><path style="transform-origin:576.78px 309.22px;transform:scaleX(-0.71);opacity:0" d="M 576.78 267.22 A 42 42 0 0 1 576.78 351.22 Z" fill="#000000" stroke="none"/><path style="transform-origin:576.78px 309.22px;transform:scaleX(-0.75);opacity:0" d="M 576.78 267.22 A 42 42 0 0 1 576.78 351.22 Z" fill="#000000" fill-opacity="0.5" stroke="none"/><path style="transform-origin:576.78px 309.22px;transform:scaleX(-0.71);opacity:1" d="M 576.78 267.22 A 42 42 0 0 1 576.78 351.22 Z" fill="#ffffff" stroke="none"/><path style="transform-origin:576.78px 309.22px;transform:scaleX(-0.75);opacity:1" d="M 576.78 267.22 A 42 42 0 0 1 576.78 351.22 Z" fill="#ffffff" fill-opacity="0.5" stroke="none"/></mask><linearGradient id="phg6" gradientUnits="userSpaceOnUse" x1="534.78" y1="309.22" x2="618.78" y2="309.22"><stop offset="0" stop-color="#b6b3ad" stop-opacity="0.34"/><stop offset="0.45" stop-color="#b6b3ad" stop-opacity="0.19"/><stop offset="0.82" stop-color="#b6b3ad" stop-opacity="0.08"/><stop offset="1" stop-color="#f4f2ee" stop-opacity="0.03"/></linearGradient><radialGradient id="phr6" gradientUnits="userSpaceOnUse" cx="576.78" cy="309.22" r="42"><stop offset="0.55" stop-color="#b6b3ad" stop-opacity="0"/><stop offset="0.88" stop-color="#b6b3ad" stop-opacity="0.07"/><stop offset="1" stop-color="#6f6d69" stop-opacity="0.2"/></radialGradient><mask id="ph7" maskUnits="userSpaceOnUse" x="585.97" y="345.33" width="90" height="90"><path d="M 630.97 348.33 A 42 42 0 0 1 630.97 432.33 Z" fill="#ffffff" stroke="none"/><path style="transform-origin:630.97px 390.33px;transform:scaleX(-0.92);opacity:0" d="M 630.97 348.33 A 42 42 0 0 1 630.97 432.33 Z" fill="#000000" stroke="none"/><path style="transform-origin:630.97px 390.33px;transform:scaleX(-0.98);opacity:0" d="M 630.97 348.33 A 42 42 0 0 1 630.97 432.33 Z" fill="#000000" fill-opacity="0.5" stroke="none"/><path style="transform-origin:630.97px 390.33px;transform:scaleX(-0.92);opacity:1" d="M 630.97 348.33 A 42 42 0 0 1 630.97 432.33 Z" fill="#ffffff" stroke="none"/><path style="transform-origin:630.97px 390.33px;transform:scaleX(-0.98);opacity:1" d="M 630.97 348.33 A 42 42 0 0 1 630.97 432.33 Z" fill="#ffffff" fill-opacity="0.5" stroke="none"/></mask><linearGradient id="phg7" gradientUnits="userSpaceOnUse" x1="588.97" y1="390.33" x2="672.97" y2="390.33"><stop offset="0" stop-color="#b6b3ad" stop-opacity="0.34"/><stop offset="0.45" stop-color="#b6b3ad" stop-opacity="0.19"/><stop offset="0.82" stop-color="#b6b3ad" stop-opacity="0.08"/><stop offset="1" stop-color="#f4f2ee" stop-opacity="0.03"/></linearGradient><radialGradient id="phr7" gradientUnits="userSpaceOnUse" cx="630.97" cy="390.33" r="42"><stop offset="0.55" stop-color="#b6b3ad" stop-opacity="0"/><stop offset="0.88" stop-color="#b6b3ad" stop-opacity="0.07"/><stop offset="1" stop-color="#6f6d69" stop-opacity="0.2"/></radialGradient><mask id="ph8" maskUnits="userSpaceOnUse" x="605" y="441" width="90" height="90"><path d="M 650 444 A 42 42 0 0 1 650 528 Z" fill="#ffffff" stroke="none"/><path style="transform-origin:650px 486px;transform:scaleX(-1);opacity:0" d="M 650 444 A 42 42 0 0 1 650 528 Z" fill="#000000" stroke="none"/><path style="transform-origin:650px 486px;transform:scaleX(-1.06);opacity:0" d="M 650 444 A 42 42 0 0 1 650 528 Z" fill="#000000" fill-opacity="0.5" stroke="none"/><path style="transform-origin:650px 486px;transform:scaleX(-1);opacity:1" d="M 650 444 A 42 42 0 0 1 650 528 Z" fill="#ffffff" stroke="none"/><path style="transform-origin:650px 486px;transform:scaleX(-1.06);opacity:1" d="M 650 444 A 42 42 0 0 1 650 528 Z" fill="#ffffff" fill-opacity="0.5" stroke="none"/></mask><linearGradient id="phg8" gradientUnits="userSpaceOnUse" x1="608" y1="486" x2="692" y2="486"><stop offset="0" stop-color="#b6b3ad" stop-opacity="0.34"/><stop offset="0.45" stop-color="#b6b3ad" stop-opacity="0.19"/><stop offset="0.82" stop-color="#b6b3ad" stop-opacity="0.08"/><stop offset="1" stop-color="#f4f2ee" stop-opacity="0.03"/></linearGradient><radialGradient id="phr8" gradientUnits="userSpaceOnUse" cx="650" cy="486" r="42"><stop offset="0.55" stop-color="#b6b3ad" stop-opacity="0"/><stop offset="0.88" stop-color="#b6b3ad" stop-opacity="0.07"/><stop offset="1" stop-color="#6f6d69" stop-opacity="0.2"/></radialGradient></defs>
  <g fill="none" stroke-linecap="round" stroke-linejoin="round">
  <path d="M 150 486 A 250 250 0 0 1 650 486" fill="none" stroke="#4c4a46" stroke-width="0.8" stroke-dasharray="4 7"/>
  <circle cx="150" cy="486" r="42" fill="none" stroke="#7e7b75" stroke-width="0.9" opacity="0.32"/>
  <circle cx="150" cy="486" r="42" fill="none" stroke="#b6b3ad" stroke-width="1.15"/>
  <circle cx="150" cy="486" r="42" fill="none" stroke="url(#k-light)" stroke-width="2.2" opacity="0.4"/>
  <circle cx="150" cy="486" r="40.4" fill="none" stroke="#6d6a66" stroke-width="0.9" opacity="0.3"/>
  <g mask="url(#ph0)"><path d="M 150 444 A 42 42 0 0 1 150 528 Z" fill="url(#phg0)"/><g fill="none" stroke="#b6b3ad" stroke-width="0.6" opacity="0.3"><line x1="111" y1="445" x2="111" y2="527"/><line x1="117" y1="445" x2="117" y2="527"/><line x1="123" y1="445" x2="123" y2="527"/><line x1="129" y1="445" x2="129" y2="527"/><line x1="135" y1="445" x2="135" y2="527"/><line x1="141" y1="445" x2="141" y2="527"/><line x1="147" y1="445" x2="147" y2="527"/><line x1="153" y1="445" x2="153" y2="527"/><line x1="159" y1="445" x2="159" y2="527"/><line x1="165" y1="445" x2="165" y2="527"/><line x1="171" y1="445" x2="171" y2="527"/><line x1="177" y1="445" x2="177" y2="527"/><line x1="183" y1="445" x2="183" y2="527"/><line x1="189" y1="445" x2="189" y2="527"/></g><g fill="none"><circle cx="152.41" cy="510.58" r="5.63" fill="none" stroke="#6f6d69" stroke-width="0.6" opacity="0.55"/><path d="M 150.48 505.29 A 5.63 5.63 0 0 1 157.07 507.43" fill="none" stroke="#f4f2ee" stroke-width="0.7" opacity="0.55"/><circle cx="174.03" cy="491.15" r="4.94" fill="none" stroke="#6f6d69" stroke-width="0.6" opacity="0.55"/><path d="M 172.34 486.51 A 4.94 4.94 0 0 1 178.12 488.38" fill="none" stroke="#f4f2ee" stroke-width="0.7" opacity="0.55"/><circle cx="126.72" cy="463.51" r="5.73" fill="none" stroke="#6f6d69" stroke-width="0.6" opacity="0.55"/><path d="M 124.76 458.12 A 5.73 5.73 0 0 1 131.47 460.3" fill="none" stroke="#f4f2ee" stroke-width="0.7" opacity="0.55"/><circle cx="175.83" cy="495.4" r="5.68" fill="none" stroke="#6f6d69" stroke-width="0.6" opacity="0.55"/><path d="M 173.89 490.06 A 5.68 5.68 0 0 1 180.54 492.23" fill="none" stroke="#f4f2ee" stroke-width="0.7" opacity="0.55"/><circle cx="124.61" cy="505.96" r="5.34" fill="none" stroke="#6f6d69" stroke-width="0.6" opacity="0.55"/><path d="M 122.78 500.95 A 5.34 5.34 0 0 1 129.03 502.98" fill="none" stroke="#f4f2ee" stroke-width="0.7" opacity="0.55"/><path d="M 169.68 487.5 A 12.05 12.05 0 0 1 169.68 510.14" fill="none" stroke="#7e7b75" stroke-width="0.62" opacity="0.5"/><path d="M 154.89 483.86 A 12.05 12.05 0 0 1 154.89 506.51" fill="none" stroke="#7e7b75" stroke-width="0.62" opacity="0.5"/></g><path d="M 150 444 A 42 42 0 0 1 150 528 A 42 42 0 0 1 150 444 Z" fill="url(#phr0)"/><path d="M 135.24 449.47 A 39.4 39.4 0 0 1 189.3 483.25" fill="none" stroke="#f4f2ee" stroke-width="1.8" opacity="0.6"/></g>
  <path style="transform-origin:150px 486px;transform:scaleX(1.06)" d="M 150 444 A 42 42 0 0 1 150 528" fill="none" stroke="#b6b3ad" stroke-width="1.9" opacity="0.22"/>
  <path style="transform-origin:150px 486px;transform:scaleX(1)" d="M 150 444 A 42 42 0 0 1 150 528" fill="none" stroke="#7e7b75" stroke-width="0.9"/>
  <line x1="150" y1="535" x2="150" y2="568" stroke="#4c4a46" stroke-width="0.7" stroke-dasharray="2 7"/>
  <line x1="150" y1="568" x2="150" y2="579" stroke="#7e7b75" stroke-width="0.85"/>
  <text x="150" y="596" text-anchor="middle" font-family="Menlo, Consolas, monospace" font-size="9.5" letter-spacing="2.4" fill="#7e7b75">NEW</text>
  <circle cx="169.03" cy="390.33" r="42" fill="none" stroke="#7e7b75" stroke-width="0.9" opacity="0.32"/>
  <circle cx="169.03" cy="390.33" r="42" fill="none" stroke="#b6b3ad" stroke-width="1.15"/>
  <circle cx="169.03" cy="390.33" r="42" fill="none" stroke="url(#k-light)" stroke-width="2.2" opacity="0.4"/>
  <circle cx="169.03" cy="390.33" r="40.4" fill="none" stroke="#6d6a66" stroke-width="0.9" opacity="0.3"/>
  <g mask="url(#ph1)"><path d="M 169.03 348.33 A 42 42 0 0 1 169.03 432.33 Z" fill="url(#phg1)"/><g fill="none" stroke="#b6b3ad" stroke-width="0.6" opacity="0.3"><line x1="130.03" y1="349.33" x2="130.03" y2="431.33"/><line x1="136.03" y1="349.33" x2="136.03" y2="431.33"/><line x1="142.03" y1="349.33" x2="142.03" y2="431.33"/><line x1="148.03" y1="349.33" x2="148.03" y2="431.33"/><line x1="154.03" y1="349.33" x2="154.03" y2="431.33"/><line x1="160.03" y1="349.33" x2="160.03" y2="431.33"/><line x1="166.03" y1="349.33" x2="166.03" y2="431.33"/><line x1="172.03" y1="349.33" x2="172.03" y2="431.33"/><line x1="178.03" y1="349.33" x2="178.03" y2="431.33"/><line x1="184.03" y1="349.33" x2="184.03" y2="431.33"/><line x1="190.03" y1="349.33" x2="190.03" y2="431.33"/><line x1="196.03" y1="349.33" x2="196.03" y2="431.33"/><line x1="202.03" y1="349.33" x2="202.03" y2="431.33"/><line x1="208.03" y1="349.33" x2="208.03" y2="431.33"/></g><g fill="none"><circle cx="140.51" cy="391.01" r="5.65" fill="none" stroke="#6f6d69" stroke-width="0.6" opacity="0.55"/><path d="M 138.58 385.7 A 5.65 5.65 0 0 1 145.2 387.85" fill="none" stroke="#f4f2ee" stroke-width="0.7" opacity="0.55"/><circle cx="188.02" cy="414.93" r="4.6" fill="none" stroke="#6f6d69" stroke-width="0.6" opacity="0.55"/><path d="M 186.45 410.61 A 4.6 4.6 0 0 1 191.84 412.36" fill="none" stroke="#f4f2ee" stroke-width="0.7" opacity="0.55"/><circle cx="163.37" cy="369" r="5.5" fill="none" stroke="#6f6d69" stroke-width="0.6" opacity="0.55"/><path d="M 161.49 363.83 A 5.5 5.5 0 0 1 167.93 365.93" fill="none" stroke="#f4f2ee" stroke-width="0.7" opacity="0.55"/><circle cx="159.49" cy="412.34" r="4.18" fill="none" stroke="#6f6d69" stroke-width="0.6" opacity="0.55"/><path d="M 158.06 408.41 A 4.18 4.18 0 0 1 162.96 410" fill="none" stroke="#f4f2ee" stroke-width="0.7" opacity="0.55"/><circle cx="189.88" cy="389.48" r="5.11" fill="none" stroke="#6f6d69" stroke-width="0.6" opacity="0.55"/><path d="M 188.13 384.68 A 5.11 5.11 0 0 1 194.12 386.62" fill="none" stroke="#f4f2ee" stroke-width="0.7" opacity="0.55"/><path d="M 168.45 364.79 A 11.58 11.58 0 0 1 168.45 386.55" fill="none" stroke="#7e7b75" stroke-width="0.62" opacity="0.5"/><path d="M 159.56 376.44 A 11.58 11.58 0 0 1 159.56 398.2" fill="none" stroke="#7e7b75" stroke-width="0.62" opacity="0.5"/></g><path d="M 169.03 348.33 A 42 42 0 0 1 169.03 432.33 A 42 42 0 0 1 169.03 348.33 Z" fill="url(#phr1)"/><path d="M 154.27 353.8 A 39.4 39.4 0 0 1 208.33 387.58" fill="none" stroke="#f4f2ee" stroke-width="1.8" opacity="0.6"/></g>
  <path style="transform-origin:169.03px 390.33px;transform:scaleX(0.98)" d="M 169.03 348.33 A 42 42 0 0 1 169.03 432.33" fill="none" stroke="#b6b3ad" stroke-width="1.9" opacity="0.22"/>
  <path style="transform-origin:169.03px 390.33px;transform:scaleX(0.92)" d="M 169.03 348.33 A 42 42 0 0 1 169.03 432.33" fill="none" stroke="#7e7b75" stroke-width="0.9"/>
  <line x1="169.03" y1="439.33" x2="169.03" y2="568" stroke="#4c4a46" stroke-width="0.7" stroke-dasharray="2 7"/>
  <line x1="169.03" y1="568" x2="169.03" y2="579" stroke="#7e7b75" stroke-width="0.85"/>
  <circle cx="223.22" cy="309.22" r="42" fill="none" stroke="#7e7b75" stroke-width="0.9" opacity="0.32"/>
  <circle cx="223.22" cy="309.22" r="42" fill="none" stroke="#b6b3ad" stroke-width="1.15"/>
  <circle cx="223.22" cy="309.22" r="42" fill="none" stroke="url(#k-light)" stroke-width="2.2" opacity="0.4"/>
  <circle cx="223.22" cy="309.22" r="40.4" fill="none" stroke="#6d6a66" stroke-width="0.9" opacity="0.3"/>
  <g mask="url(#ph2)"><path d="M 223.22 267.22 A 42 42 0 0 1 223.22 351.22 Z" fill="url(#phg2)"/><g fill="none" stroke="#b6b3ad" stroke-width="0.6" opacity="0.3"><line x1="184.22" y1="268.22" x2="184.22" y2="350.22"/><line x1="190.22" y1="268.22" x2="190.22" y2="350.22"/><line x1="196.22" y1="268.22" x2="196.22" y2="350.22"/><line x1="202.22" y1="268.22" x2="202.22" y2="350.22"/><line x1="208.22" y1="268.22" x2="208.22" y2="350.22"/><line x1="214.22" y1="268.22" x2="214.22" y2="350.22"/><line x1="220.22" y1="268.22" x2="220.22" y2="350.22"/><line x1="226.22" y1="268.22" x2="226.22" y2="350.22"/><line x1="232.22" y1="268.22" x2="232.22" y2="350.22"/><line x1="238.22" y1="268.22" x2="238.22" y2="350.22"/><line x1="244.22" y1="268.22" x2="244.22" y2="350.22"/><line x1="250.22" y1="268.22" x2="250.22" y2="350.22"/><line x1="256.22" y1="268.22" x2="256.22" y2="350.22"/><line x1="262.22" y1="268.22" x2="262.22" y2="350.22"/></g><g fill="none"><circle cx="224.83" cy="276.9" r="5.67" fill="none" stroke="#6f6d69" stroke-width="0.6" opacity="0.55"/><path d="M 222.89 271.57 A 5.67 5.67 0 0 1 229.54 273.73" fill="none" stroke="#f4f2ee" stroke-width="0.7" opacity="0.55"/><circle cx="222.75" cy="319.8" r="4.27" fill="none" stroke="#6f6d69" stroke-width="0.6" opacity="0.55"/><path d="M 221.29 315.79 A 4.27 4.27 0 0 1 226.29 317.41" fill="none" stroke="#f4f2ee" stroke-width="0.7" opacity="0.55"/><circle cx="226.52" cy="297.94" r="5.27" fill="none" stroke="#6f6d69" stroke-width="0.6" opacity="0.55"/><path d="M 224.72 292.98 A 5.27 5.27 0 0 1 230.89 294.99" fill="none" stroke="#f4f2ee" stroke-width="0.7" opacity="0.55"/><circle cx="204.95" cy="299.97" r="4.38" fill="none" stroke="#6f6d69" stroke-width="0.6" opacity="0.55"/><path d="M 203.45 295.85 A 4.38 4.38 0 0 1 208.58 297.52" fill="none" stroke="#f4f2ee" stroke-width="0.7" opacity="0.55"/><circle cx="215.36" cy="304.01" r="4.88" fill="none" stroke="#6f6d69" stroke-width="0.6" opacity="0.55"/><path d="M 213.69 299.42 A 4.88 4.88 0 0 1 219.41 301.28" fill="none" stroke="#f4f2ee" stroke-width="0.7" opacity="0.55"/><path d="M 224.11 308.9 A 11.11 11.11 0 0 1 224.11 329.79" fill="none" stroke="#7e7b75" stroke-width="0.62" opacity="0.5"/><path d="M 236.19 282.93 A 11.11 11.11 0 0 1 236.19 303.82" fill="none" stroke="#7e7b75" stroke-width="0.62" opacity="0.5"/></g><path d="M 223.22 267.22 A 42 42 0 0 1 223.22 351.22 A 42 42 0 0 1 223.22 267.22 Z" fill="url(#phr2)"/><path d="M 208.46 272.69 A 39.4 39.4 0 0 1 262.53 306.47" fill="none" stroke="#f4f2ee" stroke-width="1.8" opacity="0.6"/></g>
  <path style="transform-origin:223.22px 309.22px;transform:scaleX(0.75)" d="M 223.22 267.22 A 42 42 0 0 1 223.22 351.22" fill="none" stroke="#b6b3ad" stroke-width="1.9" opacity="0.22"/>
  <path style="transform-origin:223.22px 309.22px;transform:scaleX(0.71)" d="M 223.22 267.22 A 42 42 0 0 1 223.22 351.22" fill="none" stroke="#7e7b75" stroke-width="0.9"/>
  <line x1="223.22" y1="358.22" x2="223.22" y2="568" stroke="#4c4a46" stroke-width="0.7" stroke-dasharray="2 7"/>
  <line x1="223.22" y1="568" x2="223.22" y2="579" stroke="#7e7b75" stroke-width="0.85"/>
  <circle cx="304.33" cy="255.03" r="42" fill="none" stroke="#7e7b75" stroke-width="0.9" opacity="0.32"/>
  <circle cx="304.33" cy="255.03" r="42" fill="none" stroke="#b6b3ad" stroke-width="1.15"/>
  <circle cx="304.33" cy="255.03" r="42" fill="none" stroke="url(#k-light)" stroke-width="2.2" opacity="0.4"/>
  <circle cx="304.33" cy="255.03" r="40.4" fill="none" stroke="#6d6a66" stroke-width="0.9" opacity="0.3"/>
  <g mask="url(#ph3)"><path d="M 304.33 213.03 A 42 42 0 0 1 304.33 297.03 Z" fill="url(#phg3)"/><g fill="none" stroke="#b6b3ad" stroke-width="0.6" opacity="0.3"><line x1="265.33" y1="214.03" x2="265.33" y2="296.03"/><line x1="271.33" y1="214.03" x2="271.33" y2="296.03"/><line x1="277.33" y1="214.03" x2="277.33" y2="296.03"/><line x1="283.33" y1="214.03" x2="283.33" y2="296.03"/><line x1="289.33" y1="214.03" x2="289.33" y2="296.03"/><line x1="295.33" y1="214.03" x2="295.33" y2="296.03"/><line x1="301.33" y1="214.03" x2="301.33" y2="296.03"/><line x1="307.33" y1="214.03" x2="307.33" y2="296.03"/><line x1="313.33" y1="214.03" x2="313.33" y2="296.03"/><line x1="319.33" y1="214.03" x2="319.33" y2="296.03"/><line x1="325.33" y1="214.03" x2="325.33" y2="296.03"/><line x1="331.33" y1="214.03" x2="331.33" y2="296.03"/><line x1="337.33" y1="214.03" x2="337.33" y2="296.03"/><line x1="343.33" y1="214.03" x2="343.33" y2="296.03"/></g><g fill="none"><circle cx="313.45" cy="256.16" r="5.7" fill="none" stroke="#6f6d69" stroke-width="0.6" opacity="0.55"/><path d="M 311.5 250.81 A 5.7 5.7 0 0 1 318.18 252.98" fill="none" stroke="#f4f2ee" stroke-width="0.7" opacity="0.55"/><circle cx="292.71" cy="267.57" r="5.64" fill="none" stroke="#6f6d69" stroke-width="0.6" opacity="0.55"/><path d="M 290.78 262.27 A 5.64 5.64 0 0 1 297.38 264.41" fill="none" stroke="#f4f2ee" stroke-width="0.7" opacity="0.55"/><circle cx="325.27" cy="235.77" r="5.04" fill="none" stroke="#6f6d69" stroke-width="0.6" opacity="0.55"/><path d="M 323.55 231.04 A 5.04 5.04 0 0 1 329.45 232.95" fill="none" stroke="#f4f2ee" stroke-width="0.7" opacity="0.55"/><circle cx="312.89" cy="240.36" r="4.58" fill="none" stroke="#6f6d69" stroke-width="0.6" opacity="0.55"/><path d="M 311.32 236.06 A 4.58 4.58 0 0 1 316.69 237.8" fill="none" stroke="#f4f2ee" stroke-width="0.7" opacity="0.55"/><circle cx="313.14" cy="278.43" r="4.66" fill="none" stroke="#6f6d69" stroke-width="0.6" opacity="0.55"/><path d="M 311.54 274.05 A 4.66 4.66 0 0 1 317 275.82" fill="none" stroke="#f4f2ee" stroke-width="0.7" opacity="0.55"/><path d="M 329.01 226.98 A 10.65 10.65 0 0 1 329.01 246.99" fill="none" stroke="#7e7b75" stroke-width="0.62" opacity="0.5"/><path d="M 323.42 261.87 A 10.65 10.65 0 0 1 323.42 281.88" fill="none" stroke="#7e7b75" stroke-width="0.62" opacity="0.5"/></g><path d="M 304.33 213.03 A 42 42 0 0 1 304.33 297.03 A 42 42 0 0 1 304.33 213.03 Z" fill="url(#phr3)"/><path d="M 289.57 218.5 A 39.4 39.4 0 0 1 343.63 252.28" fill="none" stroke="#f4f2ee" stroke-width="1.8" opacity="0.6"/></g>
  <path style="transform-origin:304.33px 255.03px;transform:scaleX(0.41)" d="M 304.33 213.03 A 42 42 0 0 1 304.33 297.03" fill="none" stroke="#b6b3ad" stroke-width="1.9" opacity="0.22"/>
  <path style="transform-origin:304.33px 255.03px;transform:scaleX(0.38)" d="M 304.33 213.03 A 42 42 0 0 1 304.33 297.03" fill="none" stroke="#7e7b75" stroke-width="0.9"/>
  <line x1="304.33" y1="304.03" x2="304.33" y2="568" stroke="#4c4a46" stroke-width="0.7" stroke-dasharray="2 7"/>
  <line x1="304.33" y1="568" x2="304.33" y2="579" stroke="#7e7b75" stroke-width="0.85"/>
  <circle cx="400" cy="236" r="42" fill="none" stroke="#7e7b75" stroke-width="0.9" opacity="0.32"/>
  <circle cx="400" cy="236" r="42" fill="none" stroke="#b6b3ad" stroke-width="1.15"/>
  <circle cx="400" cy="236" r="42" fill="none" stroke="url(#k-light)" stroke-width="2.2" opacity="0.4"/>
  <circle cx="400" cy="236" r="40.4" fill="none" stroke="#6d6a66" stroke-width="0.9" opacity="0.3"/>
  <g mask="url(#ph4)"><path d="M 400 194 A 42 42 0 0 1 400 278 Z" fill="url(#phg4)"/><g fill="none" stroke="#b6b3ad" stroke-width="0.6" opacity="0.3"><line x1="361" y1="195" x2="361" y2="277"/><line x1="367" y1="195" x2="367" y2="277"/><line x1="373" y1="195" x2="373" y2="277"/><line x1="379" y1="195" x2="379" y2="277"/><line x1="385" y1="195" x2="385" y2="277"/><line x1="391" y1="195" x2="391" y2="277"/><line x1="397" y1="195" x2="397" y2="277"/><line x1="403" y1="195" x2="403" y2="277"/><line x1="409" y1="195" x2="409" y2="277"/><line x1="415" y1="195" x2="415" y2="277"/><line x1="421" y1="195" x2="421" y2="277"/><line x1="427" y1="195" x2="427" y2="277"/><line x1="433" y1="195" x2="433" y2="277"/><line x1="439" y1="195" x2="439" y2="277"/></g><g fill="none"><circle cx="397.45" cy="248.78" r="5.72" fill="none" stroke="#6f6d69" stroke-width="0.6" opacity="0.55"/><path d="M 395.49 243.4 A 5.72 5.72 0 0 1 402.19 245.58" fill="none" stroke="#f4f2ee" stroke-width="0.7" opacity="0.55"/><circle cx="376.57" cy="238.84" r="5.3" fill="none" stroke="#6f6d69" stroke-width="0.6" opacity="0.55"/><path d="M 374.76 233.86 A 5.3 5.3 0 0 1 380.97 235.88" fill="none" stroke="#f4f2ee" stroke-width="0.7" opacity="0.55"/><circle cx="417.78" cy="232.39" r="4.81" fill="none" stroke="#6f6d69" stroke-width="0.6" opacity="0.55"/><path d="M 416.14 227.87 A 4.81 4.81 0 0 1 421.77 229.7" fill="none" stroke="#f4f2ee" stroke-width="0.7" opacity="0.55"/><circle cx="411.22" cy="243.48" r="4.78" fill="none" stroke="#6f6d69" stroke-width="0.6" opacity="0.55"/><path d="M 409.58 238.99 A 4.78 4.78 0 0 1 415.18 240.81" fill="none" stroke="#f4f2ee" stroke-width="0.7" opacity="0.55"/><circle cx="403.56" cy="222.91" r="4.43" fill="none" stroke="#6f6d69" stroke-width="0.6" opacity="0.55"/><path d="M 402.05 218.75 A 4.43 4.43 0 0 1 407.23 220.43" fill="none" stroke="#f4f2ee" stroke-width="0.7" opacity="0.55"/><path d="M 380.76 229.35 A 10.18 10.18 0 0 1 380.76 248.48" fill="none" stroke="#7e7b75" stroke-width="0.62" opacity="0.5"/><path d="M 378.67 238.06 A 10.18 10.18 0 0 1 378.67 257.2" fill="none" stroke="#7e7b75" stroke-width="0.62" opacity="0.5"/></g><path d="M 400 194 A 42 42 0 0 1 400 278 A 42 42 0 0 1 400 194 Z" fill="url(#phr4)"/><path d="M 385.24 199.47 A 39.4 39.4 0 0 1 439.3 233.25" fill="none" stroke="#f4f2ee" stroke-width="1.8" opacity="0.6"/></g>
  <path style="transform-origin:400px 236px;transform:scaleX(0)" d="M 400 194 A 42 42 0 0 1 400 278" fill="none" stroke="#b6b3ad" stroke-width="1.9" opacity="0.22"/>
  <path style="transform-origin:400px 236px;transform:scaleX(0)" d="M 400 194 A 42 42 0 0 1 400 278" fill="none" stroke="#7e7b75" stroke-width="0.9"/>
  <line x1="400" y1="285" x2="400" y2="568" stroke="#4c4a46" stroke-width="0.7" stroke-dasharray="2 7"/>
  <line x1="400" y1="568" x2="400" y2="579" stroke="#7e7b75" stroke-width="0.85"/>
  <text x="400" y="596" text-anchor="middle" font-family="Menlo, Consolas, monospace" font-size="9.5" letter-spacing="2.4" fill="#7e7b75">HALF</text>
  <circle cx="495.67" cy="255.03" r="42" fill="none" stroke="#7e7b75" stroke-width="0.9" opacity="0.32"/>
  <circle cx="495.67" cy="255.03" r="42" fill="none" stroke="#b6b3ad" stroke-width="1.15"/>
  <circle cx="495.67" cy="255.03" r="42" fill="none" stroke="url(#k-light)" stroke-width="2.2" opacity="0.4"/>
  <circle cx="495.67" cy="255.03" r="40.4" fill="none" stroke="#6d6a66" stroke-width="0.9" opacity="0.3"/>
  <g mask="url(#ph5)"><path d="M 495.67 213.03 A 42 42 0 0 1 495.67 297.03 Z" fill="url(#phg5)"/><g fill="none" stroke="#b6b3ad" stroke-width="0.6" opacity="0.3"><line x1="456.67" y1="214.03" x2="456.67" y2="296.03"/><line x1="462.67" y1="214.03" x2="462.67" y2="296.03"/><line x1="468.67" y1="214.03" x2="468.67" y2="296.03"/><line x1="474.67" y1="214.03" x2="474.67" y2="296.03"/><line x1="480.67" y1="214.03" x2="480.67" y2="296.03"/><line x1="486.67" y1="214.03" x2="486.67" y2="296.03"/><line x1="492.67" y1="214.03" x2="492.67" y2="296.03"/><line x1="498.67" y1="214.03" x2="498.67" y2="296.03"/><line x1="504.67" y1="214.03" x2="504.67" y2="296.03"/><line x1="510.67" y1="214.03" x2="510.67" y2="296.03"/><line x1="516.67" y1="214.03" x2="516.67" y2="296.03"/><line x1="522.67" y1="214.03" x2="522.67" y2="296.03"/><line x1="528.67" y1="214.03" x2="528.67" y2="296.03"/><line x1="534.67" y1="214.03" x2="534.67" y2="296.03"/></g><g fill="none"><circle cx="479.42" cy="250.52" r="5.74" fill="none" stroke="#6f6d69" stroke-width="0.6" opacity="0.55"/><path d="M 477.46 245.12 A 5.74 5.74 0 0 1 484.18 247.31" fill="none" stroke="#f4f2ee" stroke-width="0.7" opacity="0.55"/><circle cx="470.51" cy="238.49" r="4.97" fill="none" stroke="#6f6d69" stroke-width="0.6" opacity="0.55"/><path d="M 468.81 233.82 A 4.97 4.97 0 0 1 474.64 235.71" fill="none" stroke="#f4f2ee" stroke-width="0.7" opacity="0.55"/><circle cx="503.05" cy="257.67" r="4.58" fill="none" stroke="#6f6d69" stroke-width="0.6" opacity="0.55"/><path d="M 501.49 253.36 A 4.58 4.58 0 0 1 506.85 255.1" fill="none" stroke="#f4f2ee" stroke-width="0.7" opacity="0.55"/><circle cx="489.65" cy="262.99" r="4.98" fill="none" stroke="#6f6d69" stroke-width="0.6" opacity="0.55"/><path d="M 487.94 258.3 A 4.98 4.98 0 0 1 493.78 260.2" fill="none" stroke="#f4f2ee" stroke-width="0.7" opacity="0.55"/><circle cx="473.01" cy="273.34" r="4.2" fill="none" stroke="#6f6d69" stroke-width="0.6" opacity="0.55"/><path d="M 471.57 269.39 A 4.2 4.2 0 0 1 476.49 270.99" fill="none" stroke="#f4f2ee" stroke-width="0.7" opacity="0.55"/><path d="M 515.26 253.83 A 9.71 9.71 0 0 1 515.26 272.09" fill="none" stroke="#7e7b75" stroke-width="0.62" opacity="0.5"/><path d="M 497.66 236.05 A 9.71 9.71 0 0 1 497.66 254.3" fill="none" stroke="#7e7b75" stroke-width="0.62" opacity="0.5"/></g><path d="M 495.67 213.03 A 42 42 0 0 1 495.67 297.03 A 42 42 0 0 1 495.67 213.03 Z" fill="url(#phr5)"/><path d="M 480.91 218.5 A 39.4 39.4 0 0 1 534.97 252.28" fill="none" stroke="#f4f2ee" stroke-width="1.8" opacity="0.6"/></g>
  <path style="transform-origin:495.67px 255.03px;transform:scaleX(-0.41)" d="M 495.67 213.03 A 42 42 0 0 1 495.67 297.03" fill="none" stroke="#b6b3ad" stroke-width="1.9" opacity="0.22"/>
  <path style="transform-origin:495.67px 255.03px;transform:scaleX(-0.38)" d="M 495.67 213.03 A 42 42 0 0 1 495.67 297.03" fill="none" stroke="#7e7b75" stroke-width="0.9"/>
  <line x1="495.67" y1="304.03" x2="495.67" y2="568" stroke="#4c4a46" stroke-width="0.7" stroke-dasharray="2 7"/>
  <line x1="495.67" y1="568" x2="495.67" y2="579" stroke="#7e7b75" stroke-width="0.85"/>
  <circle cx="576.78" cy="309.22" r="42" fill="none" stroke="#7e7b75" stroke-width="0.9" opacity="0.32"/>
  <circle cx="576.78" cy="309.22" r="42" fill="none" stroke="#b6b3ad" stroke-width="1.15"/>
  <circle cx="576.78" cy="309.22" r="42" fill="none" stroke="url(#k-light)" stroke-width="2.2" opacity="0.4"/>
  <circle cx="576.78" cy="309.22" r="40.4" fill="none" stroke="#6d6a66" stroke-width="0.9" opacity="0.3"/>
  <g mask="url(#ph6)"><path d="M 576.78 267.22 A 42 42 0 0 1 576.78 351.22 Z" fill="url(#phg6)"/><g fill="none" stroke="#b6b3ad" stroke-width="0.6" opacity="0.3"><line x1="537.78" y1="268.22" x2="537.78" y2="350.22"/><line x1="543.78" y1="268.22" x2="543.78" y2="350.22"/><line x1="549.78" y1="268.22" x2="549.78" y2="350.22"/><line x1="555.78" y1="268.22" x2="555.78" y2="350.22"/><line x1="561.78" y1="268.22" x2="561.78" y2="350.22"/><line x1="567.78" y1="268.22" x2="567.78" y2="350.22"/><line x1="573.78" y1="268.22" x2="573.78" y2="350.22"/><line x1="579.78" y1="268.22" x2="579.78" y2="350.22"/><line x1="585.78" y1="268.22" x2="585.78" y2="350.22"/><line x1="591.78" y1="268.22" x2="591.78" y2="350.22"/><line x1="597.78" y1="268.22" x2="597.78" y2="350.22"/><line x1="603.78" y1="268.22" x2="603.78" y2="350.22"/><line x1="609.78" y1="268.22" x2="609.78" y2="350.22"/><line x1="615.78" y1="268.22" x2="615.78" y2="350.22"/></g><g fill="none"><circle cx="583.77" cy="289.75" r="5.76" fill="none" stroke="#6f6d69" stroke-width="0.6" opacity="0.55"/><path d="M 581.8 284.33 A 5.76 5.76 0 0 1 588.54 286.52" fill="none" stroke="#f4f2ee" stroke-width="0.7" opacity="0.55"/><circle cx="574.06" cy="300" r="4.64" fill="none" stroke="#6f6d69" stroke-width="0.6" opacity="0.55"/><path d="M 572.47 295.64 A 4.64 4.64 0 0 1 577.9 297.41" fill="none" stroke="#f4f2ee" stroke-width="0.7" opacity="0.55"/><circle cx="592.29" cy="328.23" r="4.35" fill="none" stroke="#6f6d69" stroke-width="0.6" opacity="0.55"/><path d="M 590.8 324.14 A 4.35 4.35 0 0 1 595.9 325.8" fill="none" stroke="#f4f2ee" stroke-width="0.7" opacity="0.55"/><circle cx="571.86" cy="305.01" r="5.18" fill="none" stroke="#6f6d69" stroke-width="0.6" opacity="0.55"/><path d="M 570.08 300.14 A 5.18 5.18 0 0 1 576.15 302.11" fill="none" stroke="#f4f2ee" stroke-width="0.7" opacity="0.55"/><circle cx="594.45" cy="308.27" r="5.68" fill="none" stroke="#6f6d69" stroke-width="0.6" opacity="0.55"/><path d="M 592.51 302.93 A 5.68 5.68 0 0 1 599.16 305.1" fill="none" stroke="#f4f2ee" stroke-width="0.7" opacity="0.55"/><path d="M 574.35 285.83 A 12.75 12.75 0 0 1 574.35 309.79" fill="none" stroke="#7e7b75" stroke-width="0.62" opacity="0.5"/><path d="M 595.42 299.69 A 12.75 12.75 0 0 1 595.42 323.65" fill="none" stroke="#7e7b75" stroke-width="0.62" opacity="0.5"/></g><path d="M 576.78 267.22 A 42 42 0 0 1 576.78 351.22 A 42 42 0 0 1 576.78 267.22 Z" fill="url(#phr6)"/><path d="M 562.02 272.69 A 39.4 39.4 0 0 1 616.08 306.47" fill="none" stroke="#f4f2ee" stroke-width="1.8" opacity="0.6"/></g>
  <path style="transform-origin:576.78px 309.22px;transform:scaleX(-0.75)" d="M 576.78 267.22 A 42 42 0 0 1 576.78 351.22" fill="none" stroke="#b6b3ad" stroke-width="1.9" opacity="0.22"/>
  <path style="transform-origin:576.78px 309.22px;transform:scaleX(-0.71)" d="M 576.78 267.22 A 42 42 0 0 1 576.78 351.22" fill="none" stroke="#7e7b75" stroke-width="0.9"/>
  <line x1="576.78" y1="358.22" x2="576.78" y2="568" stroke="#4c4a46" stroke-width="0.7" stroke-dasharray="2 7"/>
  <line x1="576.78" y1="568" x2="576.78" y2="579" stroke="#7e7b75" stroke-width="0.85"/>
  <circle cx="630.97" cy="390.33" r="42" fill="none" stroke="#7e7b75" stroke-width="0.9" opacity="0.32"/>
  <circle cx="630.97" cy="390.33" r="42" fill="none" stroke="#b6b3ad" stroke-width="1.15"/>
  <circle cx="630.97" cy="390.33" r="42" fill="none" stroke="url(#k-light)" stroke-width="2.2" opacity="0.4"/>
  <circle cx="630.97" cy="390.33" r="40.4" fill="none" stroke="#6d6a66" stroke-width="0.9" opacity="0.3"/>
  <g mask="url(#ph7)"><path d="M 630.97 348.33 A 42 42 0 0 1 630.97 432.33 Z" fill="url(#phg7)"/><g fill="none" stroke="#b6b3ad" stroke-width="0.6" opacity="0.3"><line x1="591.97" y1="349.33" x2="591.97" y2="431.33"/><line x1="597.97" y1="349.33" x2="597.97" y2="431.33"/><line x1="603.97" y1="349.33" x2="603.97" y2="431.33"/><line x1="609.97" y1="349.33" x2="609.97" y2="431.33"/><line x1="615.97" y1="349.33" x2="615.97" y2="431.33"/><line x1="621.97" y1="349.33" x2="621.97" y2="431.33"/><line x1="627.97" y1="349.33" x2="627.97" y2="431.33"/><line x1="633.97" y1="349.33" x2="633.97" y2="431.33"/><line x1="639.97" y1="349.33" x2="639.97" y2="431.33"/><line x1="645.97" y1="349.33" x2="645.97" y2="431.33"/><line x1="651.97" y1="349.33" x2="651.97" y2="431.33"/><line x1="657.97" y1="349.33" x2="657.97" y2="431.33"/><line x1="663.97" y1="349.33" x2="663.97" y2="431.33"/><line x1="669.97" y1="349.33" x2="669.97" y2="431.33"/></g><g fill="none"><circle cx="653.38" cy="400.29" r="5.78" fill="none" stroke="#6f6d69" stroke-width="0.6" opacity="0.55"/><path d="M 651.4 394.86 A 5.78 5.78 0 0 1 658.18 397.06" fill="none" stroke="#f4f2ee" stroke-width="0.7" opacity="0.55"/><circle cx="637.48" cy="375.58" r="4.31" fill="none" stroke="#6f6d69" stroke-width="0.6" opacity="0.55"/><path d="M 636.01 371.54 A 4.31 4.31 0 0 1 641.05 373.17" fill="none" stroke="#f4f2ee" stroke-width="0.7" opacity="0.55"/><circle cx="632.97" cy="404.41" r="4.12" fill="none" stroke="#6f6d69" stroke-width="0.6" opacity="0.55"/><path d="M 631.56 400.54 A 4.12 4.12 0 0 1 636.39 402.11" fill="none" stroke="#f4f2ee" stroke-width="0.7" opacity="0.55"/><circle cx="651.78" cy="368.76" r="5.38" fill="none" stroke="#6f6d69" stroke-width="0.6" opacity="0.55"/><path d="M 649.94 363.7 A 5.38 5.38 0 0 1 656.25 365.75" fill="none" stroke="#f4f2ee" stroke-width="0.7" opacity="0.55"/><circle cx="625.7" cy="386.94" r="5.45" fill="none" stroke="#6f6d69" stroke-width="0.6" opacity="0.55"/><path d="M 623.84 381.82 A 5.45 5.45 0 0 1 630.22 383.89" fill="none" stroke="#f4f2ee" stroke-width="0.7" opacity="0.55"/><path d="M 634.79 387.25 A 12.28 12.28 0 0 1 634.79 410.33" fill="none" stroke="#7e7b75" stroke-width="0.62" opacity="0.5"/><path d="M 626.49 395.73 A 12.28 12.28 0 0 1 626.49 418.81" fill="none" stroke="#7e7b75" stroke-width="0.62" opacity="0.5"/></g><path d="M 630.97 348.33 A 42 42 0 0 1 630.97 432.33 A 42 42 0 0 1 630.97 348.33 Z" fill="url(#phr7)"/><path d="M 616.21 353.8 A 39.4 39.4 0 0 1 670.27 387.58" fill="none" stroke="#f4f2ee" stroke-width="1.8" opacity="0.6"/></g>
  <path style="transform-origin:630.97px 390.33px;transform:scaleX(-0.98)" d="M 630.97 348.33 A 42 42 0 0 1 630.97 432.33" fill="none" stroke="#b6b3ad" stroke-width="1.9" opacity="0.22"/>
  <path style="transform-origin:630.97px 390.33px;transform:scaleX(-0.92)" d="M 630.97 348.33 A 42 42 0 0 1 630.97 432.33" fill="none" stroke="#7e7b75" stroke-width="0.9"/>
  <line x1="630.97" y1="439.33" x2="630.97" y2="568" stroke="#4c4a46" stroke-width="0.7" stroke-dasharray="2 7"/>
  <line x1="630.97" y1="568" x2="630.97" y2="579" stroke="#7e7b75" stroke-width="0.85"/>
  <circle cx="650" cy="486" r="42" fill="none" stroke="#7e7b75" stroke-width="0.9" opacity="0.32"/>
  <circle cx="650" cy="486" r="42" fill="none" stroke="#b6b3ad" stroke-width="1.15"/>
  <circle cx="650" cy="486" r="42" fill="none" stroke="url(#k-light)" stroke-width="2.2" opacity="0.4"/>
  <circle cx="650" cy="486" r="40.4" fill="none" stroke="#6d6a66" stroke-width="0.9" opacity="0.3"/>
  <g mask="url(#ph8)"><path d="M 650 444 A 42 42 0 0 1 650 528 Z" fill="url(#phg8)"/><g fill="none" stroke="#b6b3ad" stroke-width="0.6" opacity="0.3"><line x1="611" y1="445" x2="611" y2="527"/><line x1="617" y1="445" x2="617" y2="527"/><line x1="623" y1="445" x2="623" y2="527"/><line x1="629" y1="445" x2="629" y2="527"/><line x1="635" y1="445" x2="635" y2="527"/><line x1="641" y1="445" x2="641" y2="527"/><line x1="647" y1="445" x2="647" y2="527"/><line x1="653" y1="445" x2="653" y2="527"/><line x1="659" y1="445" x2="659" y2="527"/><line x1="665" y1="445" x2="665" y2="527"/><line x1="671" y1="445" x2="671" y2="527"/><line x1="677" y1="445" x2="677" y2="527"/><line x1="683" y1="445" x2="683" y2="527"/><line x1="689" y1="445" x2="689" y2="527"/></g><g fill="none"><circle cx="636.6" cy="511" r="4.11" fill="none" stroke="#6f6d69" stroke-width="0.6" opacity="0.55"/><path d="M 635.2 507.14 A 4.11 4.11 0 0 1 640.01 508.7" fill="none" stroke="#f4f2ee" stroke-width="0.7" opacity="0.55"/><circle cx="670.35" cy="476.1" r="5.67" fill="none" stroke="#6f6d69" stroke-width="0.6" opacity="0.55"/><path d="M 668.41 470.77 A 5.67 5.67 0 0 1 675.05 472.93" fill="none" stroke="#f4f2ee" stroke-width="0.7" opacity="0.55"/><circle cx="637.9" cy="514.45" r="5.59" fill="none" stroke="#6f6d69" stroke-width="0.6" opacity="0.55"/><path d="M 635.99 509.2 A 5.59 5.59 0 0 1 642.54 511.33" fill="none" stroke="#f4f2ee" stroke-width="0.7" opacity="0.55"/><circle cx="667.92" cy="505.49" r="5.59" fill="none" stroke="#6f6d69" stroke-width="0.6" opacity="0.55"/><path d="M 666.01 500.24 A 5.59 5.59 0 0 1 672.55 502.36" fill="none" stroke="#f4f2ee" stroke-width="0.7" opacity="0.55"/><circle cx="657.96" cy="506.33" r="5.22" fill="none" stroke="#6f6d69" stroke-width="0.6" opacity="0.55"/><path d="M 656.18 501.42 A 5.22 5.22 0 0 1 662.29 503.41" fill="none" stroke="#f4f2ee" stroke-width="0.7" opacity="0.55"/><path d="M 669.07 454.11 A 11.82 11.82 0 0 1 669.07 476.32" fill="none" stroke="#7e7b75" stroke-width="0.62" opacity="0.5"/><path d="M 637.24 458.35 A 11.82 11.82 0 0 1 637.24 480.56" fill="none" stroke="#7e7b75" stroke-width="0.62" opacity="0.5"/></g><path d="M 650 444 A 42 42 0 0 1 650 528 A 42 42 0 0 1 650 444 Z" fill="url(#phr8)"/><path d="M 635.24 449.47 A 39.4 39.4 0 0 1 689.3 483.25" fill="none" stroke="#f4f2ee" stroke-width="1.8" opacity="0.6"/></g>
  <path style="transform-origin:650px 486px;transform:scaleX(-1.06)" d="M 650 444 A 42 42 0 0 1 650 528" fill="none" stroke="#b6b3ad" stroke-width="1.9" opacity="0.22"/>
  <path style="transform-origin:650px 486px;transform:scaleX(-1)" d="M 650 444 A 42 42 0 0 1 650 528" fill="none" stroke="#7e7b75" stroke-width="0.9"/>
  <line x1="650" y1="535" x2="650" y2="568" stroke="#4c4a46" stroke-width="0.7" stroke-dasharray="2 7"/>
  <line x1="650" y1="568" x2="650" y2="579" stroke="#7e7b75" stroke-width="0.85"/>
  <text x="650" y="596" text-anchor="middle" font-family="Menlo, Consolas, monospace" font-size="9.5" letter-spacing="2.4" fill="#7e7b75">FULL</text>
  <line x1="128" y1="568" x2="672" y2="568" stroke="#7e7b75" stroke-width="0.9" stroke-dasharray="7 6"/>
  <line x1="159.52" y1="486" x2="159.52" y2="568" stroke="#4c4a46" stroke-width="0.6" stroke-dasharray="2 9"/>
  <line x1="159.52" y1="568" x2="159.52" y2="573" stroke="#7e7b75" stroke-width="0.7"/>
  <line x1="196.13" y1="390.33" x2="196.13" y2="568" stroke="#4c4a46" stroke-width="0.6" stroke-dasharray="2 9"/>
  <line x1="196.13" y1="568" x2="196.13" y2="573" stroke="#7e7b75" stroke-width="0.7"/>
  <line x1="263.78" y1="309.22" x2="263.78" y2="568" stroke="#4c4a46" stroke-width="0.6" stroke-dasharray="2 9"/>
  <line x1="263.78" y1="568" x2="263.78" y2="573" stroke="#7e7b75" stroke-width="0.7"/>
  <line x1="352.16" y1="255.03" x2="352.16" y2="568" stroke="#4c4a46" stroke-width="0.6" stroke-dasharray="2 9"/>
  <line x1="352.16" y1="568" x2="352.16" y2="573" stroke="#7e7b75" stroke-width="0.7"/>
  <line x1="447.84" y1="236" x2="447.84" y2="568" stroke="#4c4a46" stroke-width="0.6" stroke-dasharray="2 9"/>
  <line x1="447.84" y1="568" x2="447.84" y2="573" stroke="#7e7b75" stroke-width="0.7"/>
  <line x1="536.22" y1="255.03" x2="536.22" y2="568" stroke="#4c4a46" stroke-width="0.6" stroke-dasharray="2 9"/>
  <line x1="536.22" y1="568" x2="536.22" y2="573" stroke="#7e7b75" stroke-width="0.7"/>
  <line x1="603.87" y1="309.22" x2="603.87" y2="568" stroke="#4c4a46" stroke-width="0.6" stroke-dasharray="2 9"/>
  <line x1="603.87" y1="568" x2="603.87" y2="573" stroke="#7e7b75" stroke-width="0.7"/>
  <line x1="640.48" y1="390.33" x2="640.48" y2="568" stroke="#4c4a46" stroke-width="0.6" stroke-dasharray="2 9"/>
  <line x1="640.48" y1="568" x2="640.48" y2="573" stroke="#7e7b75" stroke-width="0.7"/>
  </g>
</svg>
